<svg width="103" height="50" viewBox="0 0 103 50" fill="none" xmlns="http://www.w3.org/2000/svg">
<g filter="url(#filter0_d)">
<path d="M7.2198 39.7549C6.61108 39.7549 6.06243 39.6202 5.57386 39.351C5.08528 39.0738 4.70083 38.6937 4.4205 38.2106C4.14017 37.7275 4 37.1811 4 36.5713C4 35.9615 4.14017 35.415 4.4205 34.932C4.70083 34.4489 5.08528 34.0727 5.57386 33.8035C6.06243 33.5342 6.61108 33.3996 7.2198 33.3996C7.82852 33.3996 8.37716 33.5342 8.86574 33.8035C9.35432 34.0727 9.73476 34.4489 10.0071 34.932C10.2874 35.415 10.4276 35.9615 10.4276 36.5713C10.4276 37.1811 10.2874 37.7275 10.0071 38.2106C9.73476 38.6937 9.35432 39.0738 8.86574 39.351C8.37716 39.6202 7.82852 39.7549 7.2198 39.7549ZM7.2198 39.0065C7.66833 39.0065 8.0688 38.9075 8.42122 38.7095C8.78164 38.5036 9.06197 38.2145 9.26221 37.8423C9.46244 37.4701 9.56256 37.0464 9.56256 36.5713C9.56256 36.0961 9.46244 35.6724 9.26221 35.3002C9.06197 34.928 8.78164 34.6429 8.42122 34.4449C8.0688 34.239 7.66833 34.1361 7.2198 34.1361C6.77127 34.1361 6.36679 34.239 6.00637 34.4449C5.65395 34.6429 5.37362 34.928 5.16537 35.3002C4.96514 35.6724 4.86502 36.0961 4.86502 36.5713C4.86502 37.0464 4.96514 37.4701 5.16537 37.8423C5.37362 38.2145 5.65395 38.5036 6.00637 38.7095C6.36679 38.9075 6.77127 39.0065 7.2198 39.0065Z" fill="#000C22"/>
<path d="M12.2506 33.4471H13.1036V36.2149H17.0803V33.4471H17.9333V39.6955H17.0803V36.9395H13.1036V39.6955H12.2506V33.4471Z" fill="#000C22"/>
<path d="M25.524 33.4471V39.6955H24.6709V34.1955H21.6434L21.5593 35.7397C21.4952 37.0385 21.343 38.0364 21.1027 38.7333C20.8625 39.4302 20.4339 39.7786 19.8172 39.7786C19.649 39.7786 19.4448 39.7469 19.2045 39.6836L19.2646 38.959C19.4087 38.9906 19.5089 39.0065 19.5649 39.0065C19.8933 39.0065 20.1416 38.856 20.3098 38.5551C20.478 38.2541 20.5901 37.8819 20.6462 37.4384C20.7023 36.995 20.7503 36.4089 20.7904 35.6803L20.8985 33.4471H25.524Z" fill="#000C22"/>
<path d="M30.1234 33.3996C30.9484 33.3996 31.5811 33.6055 32.0216 34.0173C32.4622 34.4212 32.6824 35.023 32.6824 35.8229V39.6955H31.8655V38.7214C31.6732 39.0461 31.3889 39.2995 31.0125 39.4816C30.644 39.6638 30.2035 39.7549 29.6909 39.7549C28.9861 39.7549 28.4254 39.5886 28.0089 39.2559C27.5924 38.9233 27.3842 38.4838 27.3842 37.9374C27.3842 37.4068 27.5764 36.9791 27.9609 36.6544C28.3533 36.3297 28.9741 36.1674 29.8231 36.1674H31.8294V35.7873C31.8294 35.2487 31.6772 34.8409 31.3729 34.5637C31.0685 34.2786 30.624 34.1361 30.0393 34.1361C29.6388 34.1361 29.2544 34.2034 28.8859 34.338C28.5175 34.4647 28.2011 34.6429 27.9368 34.8726L27.5524 34.243C27.8728 33.9737 28.2572 33.7678 28.7057 33.6253C29.1543 33.4748 29.6268 33.3996 30.1234 33.3996ZM29.8231 39.0896C30.3036 39.0896 30.7161 38.9827 31.0605 38.7689C31.4049 38.5472 31.6612 38.2304 31.8294 37.8186V36.797H29.8471C28.7658 36.797 28.2252 37.1692 28.2252 37.9136C28.2252 38.2779 28.3653 38.567 28.6457 38.7808C28.926 38.9867 29.3185 39.0896 29.8231 39.0896Z" fill="#000C22"/>
<path d="M34.9532 33.4471H35.8062V38.4125L40.0232 33.4471H40.7801V39.6955H39.9271V34.73L35.7221 39.6955H34.9532V33.4471ZM37.8246 32.5443C37.2799 32.5443 36.8474 32.4096 36.5271 32.1404C36.2067 31.8711 36.0425 31.491 36.0345 31H36.6472C36.6552 31.3089 36.7673 31.5583 36.9836 31.7484C37.1998 31.9305 37.4802 32.0216 37.8246 32.0216C38.169 32.0216 38.4493 31.9305 38.6656 31.7484C38.8898 31.5583 39.006 31.3089 39.014 31H39.6267C39.6187 31.491 39.4505 31.8711 39.1221 32.1404C38.8017 32.4096 38.3692 32.5443 37.8246 32.5443Z" fill="#000C22"/>
<path d="M43.2247 33.4471H44.0777V36.2149H48.0544V33.4471H48.9074V39.6955H48.0544V36.9395H44.0777V39.6955H43.2247V33.4471Z" fill="#000C22"/>
<path d="M50.8393 36.108H53.987V36.8445H50.8393V36.108Z" fill="#000C22"/>
<path d="M62.9837 33.4471V39.6955H62.2028V34.7538L59.6437 38.9352H59.2593L56.7003 34.7419V39.6955H55.9193V33.4471H56.7844L59.4635 37.9492L62.1907 33.4471H62.9837Z" fill="#000C22"/>
<path d="M67.5856 33.3996C68.4105 33.3996 69.0433 33.6055 69.4838 34.0173C69.9243 34.4212 70.1446 35.023 70.1446 35.8229V39.6955H69.3276V38.7214C69.1354 39.0461 68.8511 39.2995 68.4746 39.4816C68.1062 39.6638 67.6657 39.7549 67.1531 39.7549C66.4482 39.7549 65.8876 39.5886 65.4711 39.2559C65.0546 38.9233 64.8463 38.4838 64.8463 37.9374C64.8463 37.4068 65.0386 36.9791 65.423 36.6544C65.8155 36.3297 66.4362 36.1674 67.2852 36.1674H69.2916V35.7873C69.2916 35.2487 69.1394 34.8409 68.835 34.5637C68.5307 34.2786 68.0862 34.1361 67.5015 34.1361C67.101 34.1361 66.7165 34.2034 66.3481 34.338C65.9797 34.4647 65.6633 34.6429 65.399 34.8726L65.0145 34.243C65.3349 33.9737 65.7194 33.7678 66.1679 33.6253C66.6164 33.4748 67.089 33.3996 67.5856 33.3996ZM67.2852 39.0896C67.7658 39.0896 68.1783 38.9827 68.5227 38.7689C68.8671 38.5472 69.1234 38.2304 69.2916 37.8186V36.797H67.3092C66.228 36.797 65.6873 37.1692 65.6873 37.9136C65.6873 38.2779 65.8275 38.567 66.1078 38.7808C66.3882 38.9867 66.7806 39.0896 67.2852 39.0896Z" fill="#000C22"/>
<path d="M75.6712 33.3996C76.2639 33.3996 76.8005 33.5342 77.2811 33.8035C77.7617 34.0648 78.1381 34.437 78.4104 34.9201C78.6828 35.4032 78.8189 35.9536 78.8189 36.5713C78.8189 37.1969 78.6828 37.7513 78.4104 38.2343C78.1381 38.7174 77.7617 39.0936 77.2811 39.3629C76.8085 39.6242 76.2719 39.7549 75.6712 39.7549C75.1586 39.7549 74.694 39.6519 74.2776 39.446C73.8691 39.2322 73.5327 38.9233 73.2684 38.5194V42H72.4154V33.4471H73.2323V34.6825C73.4886 34.2707 73.825 33.9539 74.2415 33.7322C74.666 33.5104 75.1426 33.3996 75.6712 33.3996ZM75.6111 39.0065C76.0517 39.0065 76.4521 38.9075 76.8125 38.7095C77.173 38.5036 77.4533 38.2145 77.6535 37.8423C77.8618 37.4701 77.9659 37.0464 77.9659 36.5713C77.9659 36.0961 77.8618 35.6764 77.6535 35.3121C77.4533 34.9399 77.173 34.6508 76.8125 34.4449C76.4521 34.239 76.0517 34.1361 75.6111 34.1361C75.1626 34.1361 74.7581 34.239 74.3977 34.4449C74.0453 34.6508 73.765 34.9399 73.5567 35.3121C73.3565 35.6764 73.2564 36.0961 73.2564 36.5713C73.2564 37.0464 73.3565 37.4701 73.5567 37.8423C73.765 38.2145 74.0453 38.5036 74.3977 38.7095C74.7581 38.9075 75.1626 39.0065 75.6111 39.0065Z" fill="#000C22"/>
<path d="M82.9463 36.9158H81.5046V39.6955H80.6516V33.4471H81.5046V36.1911H82.9584L85.181 33.4471H86.1061L83.6191 36.4762L86.2863 39.6955H85.2771L82.9463 36.9158Z" fill="#000C22"/>
<path d="M92.9361 36.8326H87.6499C87.6979 37.482 87.9502 38.0086 88.4068 38.4125C88.8633 38.8085 89.44 39.0065 90.1368 39.0065C90.5293 39.0065 90.8897 38.9392 91.2181 38.8045C91.5465 38.662 91.8308 38.4561 92.0711 38.1868L92.5517 38.7333C92.2713 39.0659 91.9189 39.3193 91.4944 39.4935C91.0779 39.6677 90.6174 39.7549 90.1128 39.7549C89.464 39.7549 88.8874 39.6202 88.3828 39.351C87.8862 39.0738 87.4977 38.6937 87.2174 38.2106C86.9371 37.7275 86.7969 37.1811 86.7969 36.5713C86.7969 35.9615 86.929 35.415 87.1934 34.932C87.4657 34.4489 87.8341 34.0727 88.2987 33.8035C88.7712 33.5342 89.2998 33.3996 89.8845 33.3996C90.4692 33.3996 90.9938 33.5342 91.4584 33.8035C91.9229 34.0727 92.2874 34.4489 92.5517 34.932C92.816 35.4071 92.9481 35.9536 92.9481 36.5713L92.9361 36.8326ZM89.8845 34.1242C89.2758 34.1242 88.7632 34.3182 88.3467 34.7063C87.9382 35.0864 87.706 35.5853 87.6499 36.203H92.1312C92.0751 35.5853 91.8388 35.0864 91.4223 34.7063C91.0139 34.3182 90.5013 34.1242 89.8845 34.1242Z" fill="#000C22"/>
<path d="M99 34.1955H96.6092V39.6955H95.7562V34.1955H93.3654V33.4471H99V34.1955Z" fill="#000C22"/>
<path d="M16.0785 26C12.2603 26 9.28662 24.9683 7.15729 22.9048C5.05243 20.8413 4 17.916 4 14.1289V0H11.2691V13.9104C11.2691 17.9888 12.8967 20.028 16.1519 20.028C19.3826 20.028 20.998 17.9888 20.998 13.9104V0H28.1569V14.1289C28.1569 17.916 27.0923 20.8413 24.9629 22.9048C22.8581 24.9683 19.8966 26 16.0785 26Z" fill="#0349EB"/>
<path d="M58.6333 0V25.4902H52.6491L41.3049 11.9076V25.4902H34.1827V0H40.1668L51.511 13.5826V0H58.6333Z" fill="#0349EB"/>
<path d="M64.8621 0H72.1312V25.4902H64.8621V0Z" fill="#0349EB"/>
<path d="M83.8744 5.71709H75.9812V0H99V5.71709H91.1435V25.4902H83.8744V5.71709Z" fill="#0349EB"/>
</g>
<defs>
<filter id="filter0_d" x="0" y="0" width="103" height="50" filterUnits="userSpaceOnUse" color-interpolation-filters="sRGB">
<feFlood flood-opacity="0" result="BackgroundImageFix"/>
<feColorMatrix in="SourceAlpha" type="matrix" values="0 0 0 0 0 0 0 0 0 0 0 0 0 0 0 0 0 0 127 0" result="hardAlpha"/>
<feOffset dy="4"/>
<feGaussianBlur stdDeviation="2"/>
<feComposite in2="hardAlpha" operator="out"/>
<feColorMatrix type="matrix" values="0 0 0 0 0 0 0 0 0 0 0 0 0 0 0 0 0 0 0.25 0"/>
<feBlend mode="normal" in2="BackgroundImageFix" result="effect1_dropShadow"/>
<feBlend mode="normal" in="SourceGraphic" in2="effect1_dropShadow" result="shape"/>
</filter>
</defs>
</svg>
