<svg width="198" height="28" viewBox="0 0 198 28" fill="none" xmlns="http://www.w3.org/2000/svg">
<path d="M37.648 24C38.072 23.208 38.504 22.4 38.944 21.576C39.384 20.744 39.84 19.884 40.312 18.996L42.604 14.7V15.624L40.588 12.084C40.124 11.276 39.652 10.456 39.172 9.624C38.692 8.784 38.172 7.872 37.612 6.888H42.1C42.452 7.56 42.796 8.216 43.132 8.856C43.468 9.496 43.788 10.108 44.092 10.692L45.268 12.936H45.568L46.696 10.68C46.992 10.088 47.3 9.472 47.62 8.832C47.94 8.192 48.264 7.544 48.592 6.888H52.936C52.432 7.832 51.944 8.732 51.472 9.588C51.008 10.444 50.584 11.232 50.2 11.952L47.992 16.032V14.976L50.248 18.732C50.808 19.652 51.34 20.536 51.844 21.384C52.356 22.224 52.884 23.096 53.428 24H48.772C48.42 23.352 48.088 22.74 47.776 22.164C47.464 21.588 47.16 21.036 46.864 20.508L45.436 17.868H45.136L43.804 20.52C43.516 21.072 43.228 21.632 42.94 22.2C42.66 22.76 42.356 23.36 42.028 24H37.648ZM63.6501 24.324C62.1061 24.324 60.7701 24.088 59.6421 23.616C58.5141 23.136 57.5861 22.484 56.8581 21.66C56.1301 20.828 55.5861 19.88 55.2261 18.816C54.8741 17.752 54.6981 16.632 54.6981 15.456C54.6981 13.792 55.0261 12.288 55.6821 10.944C56.3461 9.592 57.3301 8.52 58.6341 7.728C59.9461 6.936 61.5821 6.54 63.5421 6.54C65.0301 6.54 66.3301 6.772 67.4421 7.236C68.5541 7.692 69.4781 8.328 70.2141 9.144C70.9581 9.96 71.5141 10.904 71.8821 11.976C72.2501 13.048 72.4341 14.2 72.4341 15.432C72.4341 17.136 72.0941 18.656 71.4141 19.992C70.7421 21.328 69.7541 22.384 68.4501 23.16C67.1461 23.936 65.5461 24.324 63.6501 24.324ZM63.5901 21.072C64.3821 21.072 65.0741 20.924 65.6661 20.628C66.2581 20.324 66.7501 19.908 67.1421 19.38C67.5341 18.852 67.8261 18.252 68.0181 17.58C68.2181 16.9 68.3181 16.184 68.3181 15.432C68.3181 14.64 68.2101 13.904 67.9941 13.224C67.7861 12.536 67.4781 11.936 67.0701 11.424C66.6701 10.912 66.1781 10.512 65.5941 10.224C65.0101 9.936 64.3421 9.792 63.5901 9.792C62.8141 9.792 62.1261 9.94 61.5261 10.236C60.9341 10.532 60.4381 10.944 60.0381 11.472C59.6381 11.992 59.3341 12.592 59.1261 13.272C58.9181 13.952 58.8141 14.672 58.8141 15.432C58.8141 16.192 58.9141 16.912 59.1141 17.592C59.3141 18.264 59.6101 18.864 60.0021 19.392C60.4021 19.912 60.8981 20.324 61.4901 20.628C62.0901 20.924 62.7901 21.072 63.5901 21.072ZM77.2714 24C77.6074 23.272 77.9474 22.524 78.2914 21.756C78.6354 20.988 78.9954 20.184 79.3714 19.344L75.7474 11.796C75.3554 10.98 74.9794 10.2 74.6194 9.456C74.2674 8.704 73.8594 7.848 73.3954 6.888H77.8354C78.0834 7.504 78.3034 8.056 78.4954 8.544C78.6954 9.032 78.8754 9.488 79.0354 9.912C79.2034 10.328 79.3714 10.748 79.5394 11.172C79.7074 11.588 79.8914 12.04 80.0914 12.528L81.3274 15.612H81.6154L82.7914 12.576C82.9914 12.072 83.1714 11.608 83.3314 11.184C83.4994 10.752 83.6634 10.324 83.8234 9.9C83.9914 9.468 84.1674 9.012 84.3514 8.532C84.5434 8.044 84.7594 7.496 84.9994 6.888H89.2594C88.7794 7.936 88.2874 9.016 87.7834 10.128C87.2874 11.24 86.8234 12.264 86.3914 13.2L83.9434 18.6C83.5754 19.432 83.1714 20.328 82.7314 21.288C82.2994 22.24 81.8874 23.144 81.4954 24H77.2714ZM90.1647 24C90.2847 23.104 90.4007 22.208 90.5127 21.312C90.6247 20.416 90.7447 19.444 90.8727 18.396L91.5807 12.66C91.7167 11.628 91.8407 10.652 91.9527 9.732C92.0647 8.812 92.1807 7.864 92.3007 6.888H96.2967C96.6807 7.864 97.0447 8.8 97.3887 9.696C97.7407 10.584 98.0887 11.468 98.4327 12.348L100.473 17.58H100.737L102.717 12.36C103.053 11.472 103.385 10.592 103.713 9.72C104.049 8.848 104.401 7.904 104.769 6.888H108.717C108.837 7.848 108.953 8.788 109.065 9.708C109.185 10.628 109.313 11.616 109.449 12.672L110.181 18.432C110.309 19.472 110.429 20.432 110.541 21.312C110.661 22.192 110.777 23.088 110.889 24H107.133C106.989 22.8 106.849 21.66 106.713 20.58C106.577 19.5 106.453 18.488 106.341 17.544L105.837 13.488H105.573L104.085 17.844C103.725 18.916 103.361 19.98 102.993 21.036C102.633 22.084 102.297 23.072 101.985 24H99.3687C99.1447 23.4 98.9007 22.756 98.6367 22.068C98.3807 21.38 98.1167 20.68 97.8447 19.968C97.5727 19.248 97.3047 18.544 97.0407 17.856L95.3847 13.488H95.1207L94.6287 17.52C94.5167 18.472 94.3927 19.492 94.2567 20.58C94.1287 21.66 93.9927 22.8 93.8487 24H90.1647ZM127.733 27.648L127.517 23.388L128.213 24H114.509C114.509 23.08 114.509 22.188 114.509 21.324C114.509 20.46 114.509 19.492 114.509 18.42V12.612C114.509 11.508 114.509 10.512 114.509 9.624C114.509 8.736 114.509 7.824 114.509 6.888H118.457C118.457 7.824 118.457 8.736 118.457 9.624C118.457 10.512 118.457 11.508 118.457 12.612V17.784C118.457 18.856 118.457 19.824 118.457 20.688C118.457 21.552 118.457 22.444 118.457 23.364L116.633 20.712H124.553C125.601 20.712 126.673 20.712 127.769 20.712C128.873 20.712 129.965 20.712 131.045 20.712C131.045 21.288 131.045 21.876 131.045 22.476C131.045 23.076 131.045 23.668 131.045 24.252C131.045 24.812 131.045 25.376 131.045 25.944C131.045 26.512 131.045 27.08 131.045 27.648H127.733ZM124.889 23.364C124.889 22.444 124.889 21.552 124.889 20.688C124.889 19.824 124.889 18.856 124.889 17.784V12.612C124.889 11.508 124.889 10.512 124.889 9.624C124.889 8.736 124.889 7.824 124.889 6.888H128.849C128.849 7.824 128.849 8.736 128.849 9.624C128.849 10.512 128.849 11.508 128.849 12.612V17.784C128.849 18.856 128.849 19.824 128.849 20.688C128.849 21.552 128.849 22.444 128.849 23.364H124.889ZM133.897 24C133.897 23.08 133.897 22.188 133.897 21.324C133.897 20.46 133.897 19.492 133.897 18.42V12.612C133.897 11.508 133.897 10.512 133.897 9.624C133.897 8.736 133.897 7.824 133.897 6.888H145.261V10.116C144.525 10.116 143.733 10.116 142.885 10.116C142.045 10.116 141.053 10.116 139.909 10.116H135.877L137.761 7.512C137.761 8.448 137.761 9.36 137.761 10.248C137.761 11.136 137.761 12.132 137.761 13.236V17.796C137.761 18.86 137.761 19.828 137.761 20.7C137.761 21.564 137.761 22.456 137.761 23.376L136.129 20.772H140.197C141.149 20.772 142.049 20.772 142.897 20.772C143.753 20.772 144.577 20.772 145.369 20.772V24H133.897ZM136.861 16.872V13.872H139.993C141.049 13.872 141.953 13.872 142.705 13.872C143.457 13.872 144.181 13.872 144.877 13.872V16.872C144.141 16.872 143.397 16.872 142.645 16.872C141.893 16.872 141.009 16.872 139.993 16.872H136.861ZM159.618 24C159.618 23.08 159.618 22.188 159.618 21.324C159.618 20.46 159.618 19.492 159.618 18.42V12.612C159.618 11.508 159.618 10.512 159.618 9.624C159.618 8.736 159.618 7.824 159.618 6.888H163.577C163.577 7.824 163.577 8.736 163.577 9.624C163.577 10.512 163.577 11.508 163.577 12.612V18.42C163.577 19.492 163.577 20.46 163.577 21.324C163.577 22.188 163.577 23.08 163.577 24H159.618ZM148.949 24C148.949 23.08 148.949 22.188 148.949 21.324C148.949 20.46 148.949 19.492 148.949 18.42V12.612C148.949 11.508 148.949 10.512 148.949 9.624C148.949 8.736 148.949 7.824 148.949 6.888H152.898C152.898 7.824 152.898 8.736 152.898 9.624C152.898 10.512 152.898 11.508 152.898 12.612V18.42C152.898 19.492 152.898 20.46 152.898 21.324C152.898 22.188 152.898 23.08 152.898 24H148.949ZM151.817 17.028V13.74H160.782V17.028H151.817ZM171.761 24C171.761 23.08 171.761 22.188 171.761 21.324C171.761 20.46 171.761 19.492 171.761 18.42V13.236C171.761 12.132 171.761 11.136 171.761 10.248C171.761 9.36 171.761 8.448 171.761 7.512L173.249 10.332H170.981C170.077 10.332 169.277 10.332 168.581 10.332C167.885 10.332 167.221 10.332 166.589 10.332V6.888H180.857V10.332C180.233 10.332 179.573 10.332 178.877 10.332C178.181 10.332 177.377 10.332 176.465 10.332H174.197L175.697 7.512C175.697 8.448 175.697 9.36 175.697 10.248C175.697 11.136 175.697 12.132 175.697 13.236V18.42C175.697 19.492 175.697 20.46 175.697 21.324C175.697 22.188 175.697 23.08 175.697 24H171.761ZM183.87 24C183.87 23.08 183.87 22.188 183.87 21.324C183.87 20.46 183.87 19.492 183.87 18.42V12.612C183.87 11.508 183.87 10.512 183.87 9.624C183.87 8.736 183.87 7.824 183.87 6.888C184.566 6.888 185.498 6.888 186.666 6.888C187.842 6.888 189.198 6.888 190.734 6.888C192.118 6.888 193.274 7.06 194.202 7.404C195.138 7.748 195.838 8.316 196.302 9.108C196.774 9.892 197.01 10.948 197.01 12.276C197.01 13.404 196.81 14.4 196.41 15.264C196.01 16.12 195.362 16.792 194.466 17.28C193.57 17.76 192.386 18 190.914 18C190.522 18 190.102 18 189.654 18C189.214 18 188.782 18 188.358 18C187.934 18 187.57 18 187.266 18V15H190.014C190.702 15 191.266 14.908 191.706 14.724C192.146 14.54 192.47 14.256 192.678 13.872C192.894 13.48 193.002 12.976 193.002 12.36C193.002 11.872 192.926 11.472 192.774 11.16C192.63 10.848 192.434 10.608 192.186 10.44C191.938 10.272 191.662 10.156 191.358 10.092C191.062 10.02 190.762 9.984 190.458 9.984H185.874L187.758 7.512C187.758 8.448 187.758 9.36 187.758 10.248C187.758 11.136 187.758 12.132 187.758 13.236V18.42C187.758 19.492 187.758 20.46 187.758 21.324C187.758 22.188 187.758 23.08 187.758 24H183.87Z" fill="#030A23"/>
<path d="M7.92473 0V16.0159L25 20.5672V4.55125L7.92473 0ZM8.89504 1.20512L24.0297 5.23888V19.3623L8.89504 15.3283V1.20512Z" fill="#2D54E2"/>
<path d="M17.0755 28L0 23.4489V7.433L17.0755 11.9841V28Z" fill="#2D54E2"/>
<path d="M7.92473 0L0 7.433L17.0755 11.9841L25 4.55125L7.92473 0ZM8.20776 1.02191L23.1457 5.00332L16.7922 10.9625L1.85431 6.98093L8.20776 1.02191Z" fill="#2D54E2"/>
<path d="M18.0366 27.0987L25 20.5672L18.0366 18.7111V27.0987Z" fill="#2D54E2"/>
</svg>
