<svg width="342" height="301" viewBox="0 0 342 301" fill="none" xmlns="http://www.w3.org/2000/svg">
<path d="M342.001 74.5C342.001 115.647 308.646 149 267.501 149C226.356 149 193 115.647 193 74.5C193 33.3553 226.356 3.86887e-06 267.501 3.86887e-06C308.646 3.86887e-06 342.001 33.3553 342.001 74.5Z" fill="white"/>
<path d="M328.049 74.5076C328.049 78.3008 327.707 82.02 327.024 85.6216C326.74 87.2356 326.379 88.8098 325.942 90.3631C323.421 99.7152 318.698 108.172 312.382 115.152C311.32 116.329 310.221 117.448 309.063 118.548C308.097 119.457 307.073 120.348 306.028 121.204C304.796 122.226 303.525 123.193 302.216 124.103C295.123 129.092 286.912 132.583 278.053 134.117C276.499 134.402 274.907 134.611 273.312 134.781C271.415 134.954 269.463 135.047 267.51 135.047C264.324 135.047 261.174 134.802 258.121 134.328C256.528 134.08 254.935 133.757 253.379 133.38C245.527 131.502 238.263 128.105 231.91 123.478C230.62 122.529 229.35 121.545 228.136 120.5C227.112 119.629 226.125 118.719 225.177 117.788C224.039 116.671 222.957 115.533 221.915 114.336C215.961 107.508 211.502 99.3549 209.076 90.3631C208.639 88.8098 208.28 87.2356 207.994 85.6216C207.31 82.02 206.97 78.3008 206.97 74.5076C206.97 73.1421 207.007 71.7784 207.104 70.4318C207.216 68.8178 207.387 67.2437 207.615 65.6903C209.018 56.0348 212.697 47.1227 218.103 39.4984C219.033 38.2069 220 36.9361 221.043 35.7242C221.896 34.6792 222.806 33.6759 223.736 32.6878C224.817 31.5517 225.954 30.4517 227.13 29.3896C234.489 22.8065 243.461 17.9892 253.379 15.6393C254.935 15.2581 256.528 14.9357 258.121 14.691C261.174 14.2169 264.324 13.9684 267.51 13.9684C269.463 13.9684 271.415 14.0651 273.312 14.2358C274.907 14.4065 276.499 14.6132 278.053 14.8977C289.262 16.8531 299.411 21.917 307.602 29.1601C308.778 30.2051 309.917 31.2862 311.036 32.4242C311.966 33.3895 312.876 34.3966 313.748 35.4378C314.772 36.6535 315.759 37.9034 316.688 39.195C322.206 46.8743 325.981 55.902 327.403 65.6903C327.631 67.2437 327.802 68.8178 327.915 70.4318C328.012 71.7784 328.049 73.1421 328.049 74.5076" fill="#2F5EB4"/>
<path d="M283.061 85.6216C280.994 83.5354 278.831 81.3751 276.575 79.0973C279.363 76.3302 282.265 73.4455 285.28 70.4318C286.836 68.8747 288.429 67.3005 290.059 65.6903C298.082 57.6867 306.939 48.8846 316.687 39.195C315.759 37.9034 314.772 36.6535 313.748 35.4378C312.876 34.3966 311.966 33.3895 311.036 32.4241C309.917 31.2862 308.778 30.2051 307.602 29.1601C298.404 38.3207 288.277 48.3934 278.053 58.5573C276.48 60.1315 274.886 61.7056 273.311 63.2798C271.226 65.3471 269.14 67.4352 267.053 69.5006C264.208 66.6386 261.232 63.642 258.12 60.5316C256.566 58.9764 254.992 57.3833 253.379 55.7503C245.452 47.8036 236.747 39.0432 227.13 29.3896C225.954 30.4517 224.817 31.5517 223.736 32.6877C222.806 33.6759 221.896 34.6792 221.043 35.7242C220 36.9361 219.033 38.2069 218.103 39.4984C226.297 47.7107 235.172 56.6417 244.181 65.6903C245.755 67.2626 247.31 68.8368 248.884 70.4318C251.749 73.2938 254.612 76.1785 257.457 79.0424C255.162 81.3372 252.962 83.5164 250.838 85.6216C249.187 87.2546 247.595 88.8477 246.059 90.3631C235.854 100.512 227.984 108.324 221.915 114.336C222.957 115.533 224.039 116.671 225.177 117.788C226.125 118.719 227.112 119.629 228.136 120.5C229.349 121.545 230.62 122.529 231.91 123.478C237.486 117.958 244.503 110.981 253.379 102.16C254.896 100.663 256.49 99.0893 258.12 97.4582C260.91 94.6892 263.867 91.7476 266.997 88.6372C269.178 90.8372 271.283 92.9633 273.311 94.9927C274.944 96.6408 276.536 98.2339 278.053 99.7702C288.277 110.069 296.167 117.996 302.216 124.103C303.525 123.193 304.796 122.226 306.028 121.204C307.072 120.348 308.097 119.457 309.063 118.548C310.221 117.448 311.32 116.329 312.382 115.152C306.256 108.969 298.252 100.908 287.784 90.3631C286.265 88.8477 284.691 87.2736 283.061 85.6216" fill="white"/>
<path d="M281.089 90.3631C293.303 102.634 302.35 111.758 309.064 118.548C308.098 119.457 307.073 120.348 306.028 121.204C298.216 113.314 288.542 103.563 278.054 93.0391C276.499 91.4631 274.925 89.8718 273.312 88.2578C271.245 86.1716 269.141 84.0474 267.016 81.9232C263.886 85.0355 260.929 87.9752 258.121 90.7613C256.491 92.3924 254.917 93.9666 253.38 95.4858C242.644 106.143 234.432 114.3 228.136 120.5C227.113 119.629 226.126 118.719 225.177 117.788C232.954 110.069 242.493 100.605 252.773 90.3631C254.367 88.8098 255.959 87.2147 257.57 85.6216C259.752 83.4614 261.954 81.2613 264.172 79.0594C261.327 76.1974 258.463 73.3146 255.58 70.4318C254.006 68.8576 252.431 67.2626 250.857 65.6903C240.578 55.352 230.374 45.0743 221.043 35.7242C221.897 34.6791 222.807 33.6758 223.736 32.6877C234.736 43.7448 244.58 53.645 253.38 62.5021C254.993 64.1161 256.567 65.7074 258.121 67.2626C261.233 70.392 264.191 73.3696 267.036 76.2145C269.121 74.1491 271.208 72.0629 273.312 69.9747C274.887 68.4005 276.461 66.8263 278.054 65.2541C289.433 53.9295 300.794 42.6069 311.037 32.4241C311.966 33.3895 312.876 34.3965 313.748 35.4378C302.445 46.6656 292.355 56.7194 283.346 65.6903C281.715 67.3005 280.123 68.8955 278.567 70.4318C275.551 73.4455 272.649 76.3302 269.881 79.0784C272.138 81.3543 274.299 83.5353 276.385 85.6216C278.017 87.2546 279.591 88.8477 281.089 90.3631" fill="#BE1C2D"/>
<path d="M327.915 70.4318C327.802 68.8178 327.631 67.2437 327.403 65.6903H278.053V14.8977C276.499 14.6132 274.907 14.4065 273.312 14.2358C271.415 14.0651 269.463 13.9684 267.51 13.9684C264.324 13.9684 261.174 14.2169 258.121 14.691C256.528 14.9357 254.935 15.2581 253.379 15.6393V65.6903H207.615C207.387 67.2437 207.216 68.8178 207.104 70.4318C207.007 71.7784 206.97 73.1421 206.97 74.5076C206.97 78.3008 207.31 82.02 207.994 85.6216C208.28 87.2356 208.639 88.8098 209.076 90.3631H253.379V133.38C254.935 133.757 256.528 134.08 258.121 134.328C261.174 134.802 264.324 135.047 267.51 135.047C269.463 135.047 271.415 134.954 273.312 134.781C274.907 134.611 276.499 134.402 278.053 134.117V90.3631H325.942C326.379 88.8098 326.74 87.2356 327.024 85.6216C327.707 82.02 328.049 78.3008 328.049 74.5076C328.049 73.1421 328.012 71.7784 327.915 70.4318" fill="white"/>
<path d="M328.049 74.5076C328.049 78.3008 327.707 82.02 327.024 85.6216H273.312V134.781C271.415 134.954 269.463 135.047 267.51 135.047C264.324 135.047 261.174 134.802 258.121 134.328V85.6216H207.994C207.31 82.02 206.97 78.3008 206.97 74.5076C206.97 73.1421 207.007 71.7784 207.104 70.4318H258.121V14.691C261.174 14.2169 264.324 13.9684 267.51 13.9684C269.463 13.9684 271.415 14.0651 273.312 14.2358V70.4318H327.915C328.012 71.7784 328.049 73.1421 328.049 74.5076Z" fill="#CA3647"/>
<path d="M32.3884 224.339L32.2837 223.426C32.2837 223.426 33.2988 137.251 35.421 125.764C37.5432 114.278 49.8864 94.3359 89.1493 94.0283C128.412 93.724 278.326 95.9718 278.326 95.9718C278.326 95.9718 315.692 95.1633 322.122 141.886C328.555 188.608 319.743 270.71 319.743 270.71H256.745C254.591 254.753 240.957 242.429 224.401 242.404C207.804 242.382 194.116 254.712 191.955 270.71H107.193C105.134 254.645 91.4491 242.213 74.8171 242.195C58.1501 242.169 44.4048 254.61 42.3428 270.71H11.0297C11.0297 270.71 4.2284 223.284 32.3884 224.339" fill="#CB2C3F"/>
<path d="M25.089 182.014C25.089 184.833 27.3761 187.119 30.1962 187.119H326.896C329.716 187.119 332 184.833 332 182.014C332 179.195 329.716 176.916 326.896 176.916H30.1962C27.3761 176.916 25.089 179.195 25.089 182.014Z" fill="#8F2330"/>
<path d="M5.10732 265.609H43.4058C42.5366 268.541 42.048 271.642 42.0449 274.853C42.0449 275.177 42.0829 275.49 42.0924 275.811H30.1965H5.10732C2.2872 275.811 -1.83488e-05 273.525 -1.83488e-05 270.71C-1.83488e-05 267.892 2.2872 265.609 5.10732 265.609Z" fill="#8F2330"/>
<path d="M191.664 275.811H107.45C107.456 275.519 107.495 275.237 107.495 274.948C107.498 271.698 107.015 268.573 106.137 265.609H193.043C192.136 268.605 191.629 271.775 191.625 275.066C191.625 275.316 191.657 275.56 191.664 275.811" fill="#8F2330"/>
<path d="M257.075 275.158C257.078 271.835 256.58 268.63 255.663 265.609H301.807H326.896C329.716 265.609 332 267.892 332 270.71C332 273.525 329.716 275.811 326.896 275.811H301.807H257.043C257.049 275.592 257.075 275.377 257.075 275.158Z" fill="#8F2330"/>
<path d="M197.941 274.342C197.941 289.067 209.885 301 224.62 301C239.345 301 251.286 289.067 251.286 274.342C251.286 259.62 239.345 247.682 224.62 247.682C209.885 247.682 197.941 259.62 197.941 274.342Z" fill="#1C3B62"/>
<path d="M214.259 274.34C214.259 280.057 218.894 284.691 224.614 284.691C230.333 284.691 234.974 280.057 234.974 274.34C234.974 268.627 230.333 263.992 224.614 263.992C218.894 263.992 214.259 268.627 214.259 274.34Z" fill="#7F9FF4"/>
<path d="M48.3541 274.342C48.3541 289.067 60.3007 301 75.0358 301C89.7613 301 101.702 289.067 101.702 274.342C101.702 259.62 89.7613 247.682 75.0358 247.682C60.3007 247.682 48.3541 259.62 48.3541 274.342Z" fill="#1C3B62"/>
<path d="M64.6752 274.34C64.6752 280.057 69.3098 284.691 75.0294 284.691C80.7458 284.691 85.3867 280.057 85.3867 274.34C85.3867 268.627 80.7458 263.992 75.0294 263.992C69.3098 263.992 64.6752 268.627 64.6752 274.34Z" fill="#7F9FF4"/>
<path d="M305.676 147.958C305.676 147.958 261.217 147.755 259.628 147.196C258.039 146.635 258.819 140.532 258.562 129.699C258.305 118.865 257.503 112.88 262.27 112.436C267.038 111.989 283.708 110.809 289.796 111.532C295.884 112.252 305.175 116.5 307.941 129.981C310.704 143.461 309.118 147.976 305.676 147.958" fill="white"/>
<path d="M43.1166 147.958C43.1166 147.958 87.5756 147.755 89.1649 147.196C90.7542 146.635 89.9738 140.532 90.2307 129.699C90.4877 118.865 91.2903 112.88 86.5224 112.436C81.7545 111.989 65.0844 110.809 58.9969 111.532C52.9093 112.252 43.6147 116.5 40.8517 129.981C38.0887 143.461 39.6747 147.976 43.1166 147.958" fill="white"/>
<path d="M251.101 118.653V140.925C251.101 140.925 251.608 147.46 243.735 147.46C235.865 147.46 211.94 147.46 211.94 147.46C211.94 147.46 203.892 147.259 203.892 140.516C203.892 133.773 203.892 121.205 203.892 121.205C203.892 121.205 203.825 112.461 213.148 112.461C222.468 112.461 242.51 112.461 242.51 112.461C242.51 112.461 251.101 112.623 251.101 118.653" fill="white"/>
<path d="M197.295 118.653V140.925C197.295 140.925 197.802 147.46 189.929 147.46C182.058 147.46 158.133 147.46 158.133 147.46C158.133 147.46 150.085 147.259 150.085 140.516C150.085 133.773 150.085 121.205 150.085 121.205C150.085 121.205 150.019 112.461 159.342 112.461C168.662 112.461 188.704 112.461 188.704 112.461C188.704 112.461 197.295 112.623 197.295 118.653" fill="white"/>
<path d="M144.949 118.653V140.925C144.949 140.925 145.457 147.46 137.584 147.46C129.713 147.46 105.788 147.46 105.788 147.46C105.788 147.46 97.7402 147.259 97.7402 140.516C97.7402 133.773 97.7402 121.205 97.7402 121.205C97.7402 121.205 97.6736 112.461 106.997 112.461C116.317 112.461 136.359 112.461 136.359 112.461C136.359 112.461 144.949 112.623 144.949 118.653" fill="white"/>
<path d="M251.101 199.356V221.628C251.101 221.628 251.608 228.162 243.735 228.162C235.865 228.162 211.94 228.162 211.94 228.162C211.94 228.162 203.892 227.963 203.892 221.219C203.892 214.476 203.892 201.912 203.892 201.912C203.892 201.912 203.825 193.165 213.148 193.165C222.468 193.165 242.51 193.165 242.51 193.165C242.51 193.165 251.101 193.33 251.101 199.356Z" fill="white"/>
<path d="M197.295 199.356V221.628C197.295 221.628 197.802 228.162 189.929 228.162C182.058 228.162 158.133 228.162 158.133 228.162C158.133 228.162 150.085 227.963 150.085 221.219C150.085 214.476 150.085 201.912 150.085 201.912C150.085 201.912 150.019 193.165 159.342 193.165C168.662 193.165 188.704 193.165 188.704 193.165C188.704 193.165 197.295 193.33 197.295 199.356Z" fill="white"/>
<path d="M144.949 199.356V221.628C144.949 221.628 145.457 228.162 137.584 228.162C129.713 228.162 105.788 228.162 105.788 228.162C105.788 228.162 97.7402 227.963 97.7402 221.219C97.7402 214.476 97.7402 201.912 97.7402 201.912C97.7402 201.912 97.6736 193.165 106.997 193.165C116.317 193.165 136.359 193.165 136.359 193.165C136.359 193.165 144.949 193.33 144.949 199.356Z" fill="white"/>
<path d="M49.0074 194.116C52.2906 194.116 57.3884 194.116 61.7852 194.116C64.0501 194.116 67.1843 194.116 70.3566 194.116C76.6725 194.116 83.1312 194.116 83.1312 194.116C83.1312 194.116 89.3805 194.236 89.3805 198.614V214.812C89.3805 214.812 89.7485 219.561 84.0258 219.561C81.3357 219.561 76.0761 219.561 71.248 219.561C65.8012 219.561 60.9064 219.561 60.9064 219.561C54.5747 219.561 48.1318 219.561 48.1318 219.561C48.1318 219.561 42.2791 219.415 42.2791 214.514C42.2791 209.609 42.2791 200.472 42.2791 200.472C42.2791 200.472 42.2346 194.116 49.0074 194.116Z" fill="white"/>
</svg>
