<svg width="86" height="41" viewBox="0 0 86 41" fill="none" xmlns="http://www.w3.org/2000/svg">
<path d="M10.0995 12.2853V8.38216H19.0145V16.3804C17.3079 17.5492 15.7966 18.3469 14.4806 18.7735C13.173 19.1915 11.6193 19.4005 9.81927 19.4005C7.60325 19.4005 5.79477 19.0209 4.39384 18.2616C3.00139 17.5023 1.91885 16.3719 1.14622 14.8703C0.382073 13.3688 0 11.6454 0 9.70027C0 7.65272 0.42028 5.87391 1.26084 4.36384C2.1014 2.84524 3.33252 1.6935 4.95421 0.908601C6.21929 0.302867 7.92164 0 10.0612 0C12.1244 0 13.6655 0.187692 14.6843 0.563076C15.7117 0.938461 16.5607 1.52287 17.2315 2.31629C17.9107 3.10119 18.4201 4.09937 18.7598 5.31084L13.1942 6.30902C12.965 5.6009 12.5744 5.05916 12.0226 4.68377C11.4792 4.30839 10.7829 4.1207 9.93389 4.1207C8.6688 4.1207 7.65843 4.56433 6.90278 5.4516C6.15561 6.33034 5.78203 7.72524 5.78203 9.63629C5.78203 11.6668 6.15986 13.1171 6.91551 13.9873C7.67966 14.8575 8.74097 15.2926 10.0995 15.2926C10.7447 15.2926 11.3603 15.1988 11.9461 15.0111C12.532 14.8234 13.2027 14.5035 13.9584 14.0513V12.2853H10.0995Z" fill="#7F9FF4"/>
<path d="M22.4969 9.71307C22.4969 6.65027 23.346 4.26573 25.0441 2.55944C26.7422 0.853146 29.1068 0 32.1379 0C35.2454 0 37.6398 0.840349 39.3209 2.52105C41.002 4.19321 41.8426 6.53937 41.8426 9.5595C41.8426 11.7521 41.4732 13.5522 40.7345 14.9599C40.0044 16.3591 38.9431 17.4511 37.5506 18.236C36.1667 19.0124 34.4388 19.4005 32.3672 19.4005C30.2615 19.4005 28.5167 19.0636 27.1328 18.3896C25.7573 17.7156 24.6408 16.6491 23.7833 15.1903C22.9257 13.7314 22.4969 11.9057 22.4969 9.71307ZM28.2662 9.73866C28.2662 11.6326 28.6144 12.9934 29.3106 13.821C30.0153 14.6485 30.9705 15.0623 32.1761 15.0623C33.4157 15.0623 34.3752 14.6571 35.0544 13.8466C35.7336 13.0361 36.0733 11.5815 36.0733 9.48272C36.0733 7.71671 35.7167 6.42846 35.0035 5.61797C34.2987 4.79895 33.3393 4.38944 32.1252 4.38944C30.962 4.38944 30.028 4.80321 29.3233 5.63076C28.6186 6.45832 28.2662 7.82762 28.2662 9.73866Z" fill="#7F9FF4"/>
<path d="M45.0066 9.71307C45.0066 6.65027 45.8557 4.26573 47.5538 2.55944C49.2519 0.853146 51.6165 0 54.6476 0C57.7551 0 60.1494 0.840349 61.8306 2.52105C63.5117 4.19321 64.3522 6.53937 64.3522 9.5595C64.3522 11.7521 63.9829 13.5522 63.2442 14.9599C62.514 16.3591 61.4527 17.4511 60.0603 18.236C58.6763 19.0124 56.9485 19.4005 54.8768 19.4005C52.7712 19.4005 51.0264 19.0636 49.6424 18.3896C48.267 17.7156 47.1505 16.6491 46.2929 15.1903C45.4354 13.7314 45.0066 11.9057 45.0066 9.71307ZM50.7759 9.73866C50.7759 11.6326 51.124 12.9934 51.8203 13.821C52.525 14.6485 53.4802 15.0623 54.6858 15.0623C55.9254 15.0623 56.8848 14.6571 57.5641 13.8466C58.2433 13.0361 58.5829 11.5815 58.5829 9.48272C58.5829 7.71671 58.2263 6.42846 57.5131 5.61797C56.8084 4.79895 55.849 4.38944 54.6349 4.38944C53.4717 4.38944 52.5377 4.80321 51.833 5.63076C51.1283 6.45832 50.7759 7.82762 50.7759 9.73866Z" fill="#7F9FF4"/>
<path d="M68.3187 0.31993H76.8898C78.5794 0.31993 79.9422 0.550279 80.978 1.01098C82.0223 1.47168 82.8841 2.13287 83.5634 2.99454C84.2426 3.85622 84.735 4.85867 85.0407 6.00188C85.3464 7.1451 85.4992 8.35657 85.4992 9.63629C85.4992 11.6412 85.27 13.1982 84.8115 14.3073C84.3615 15.4078 83.7332 16.3335 82.9266 17.0843C82.12 17.8265 81.2539 18.3213 80.3285 18.5687C79.0634 18.91 77.9172 19.0806 76.8898 19.0806H68.3187V0.31993ZM74.088 4.5686V14.8191H75.5016C76.7073 14.8191 77.5648 14.6869 78.0742 14.4224C78.5837 14.1494 78.9827 13.6802 79.2714 13.0147C79.5601 12.3408 79.7044 11.253 79.7044 9.75146C79.7044 7.76363 79.3818 6.40286 78.7365 5.66916C78.0912 4.93545 77.0214 4.5686 75.5271 4.5686H74.088Z" fill="#7F9FF4"/>
<path d="M0.466673 36.4901L4.25227 36.2518C4.33424 36.8696 4.50113 37.3403 4.75291 37.6639C5.1628 38.1876 5.74835 38.4494 6.50957 38.4494C7.07755 38.4494 7.51379 38.317 7.81828 38.0522C8.12862 37.7816 8.28379 37.4697 8.28379 37.1167C8.28379 36.7813 8.1374 36.4813 7.84463 36.2165C7.55185 35.9517 6.87261 35.7017 5.80691 35.4663C4.06196 35.0721 2.81766 34.5484 2.07401 33.8954C1.32451 33.2423 0.949754 32.4097 0.949754 31.3977C0.949754 30.7328 1.14006 30.1062 1.52067 29.5178C1.90713 28.9236 2.4839 28.4588 3.25097 28.1234C4.0239 27.7821 5.08082 27.6115 6.42174 27.6115C8.06714 27.6115 9.32022 27.9204 10.181 28.5382C11.0476 29.1501 11.5629 30.1268 11.7268 31.4683L7.97638 31.6889C7.87683 31.1064 7.66603 30.6828 7.34398 30.418C7.02778 30.1533 6.58862 30.0209 6.02649 30.0209C5.5639 30.0209 5.2155 30.1209 4.98128 30.321C4.74706 30.5151 4.62995 30.7534 4.62995 31.0358C4.62995 31.2418 4.72656 31.4271 4.9198 31.5919C5.10717 31.7625 5.55219 31.9213 6.25485 32.0684C7.99394 32.445 9.23824 32.8274 9.98775 33.2158C10.7431 33.5982 11.2906 34.0748 11.6302 34.6455C11.9757 35.2163 12.1484 35.8546 12.1484 36.5607C12.1484 37.3903 11.9201 38.1552 11.4633 38.8554C11.0066 39.5555 10.3684 40.088 9.54858 40.4528C8.72881 40.8117 7.69531 40.9912 6.44809 40.9912C4.25812 40.9912 2.74154 40.5675 1.89835 39.7203C1.05515 38.873 0.577928 37.7963 0.466673 36.4901Z" fill="#7F9FF4"/>
<path d="M23.2719 35.484L26.7589 36.543C26.5247 37.5256 26.1558 38.3464 25.6522 39.0054C25.1486 39.6644 24.5221 40.1616 23.7726 40.4969C23.0289 40.8323 22.0803 41 20.9268 41C19.5273 41 18.3826 40.797 17.4925 40.391C16.6083 39.9792 15.8442 39.2584 15.2001 38.2287C14.556 37.1991 14.2339 35.8811 14.2339 34.2749C14.2339 32.1332 14.799 30.4887 15.9291 29.3413C17.0651 28.1881 18.6695 27.6115 20.7423 27.6115C22.3643 27.6115 23.6379 27.941 24.5631 28.6C25.4941 29.2589 26.1851 30.271 26.6359 31.636L23.1226 32.4215C22.9996 32.0273 22.8708 31.739 22.7362 31.5566C22.5136 31.2506 22.2414 31.0152 21.9193 30.8505C21.5973 30.6858 21.2371 30.6034 20.839 30.6034C19.9372 30.6034 19.2463 30.9682 18.7661 31.6978C18.4031 32.2391 18.2215 33.0893 18.2215 34.2484C18.2215 35.684 18.4382 36.6695 18.8715 37.205C19.3048 37.7345 19.9138 37.9993 20.6984 37.9993C21.4596 37.9993 22.0335 37.7845 22.42 37.355C22.8123 36.9255 23.0963 36.3018 23.2719 35.484Z" fill="#7F9FF4"/>
<path d="M29.2572 27.8321H33.236V32.3597H37.5838V27.8321H41.5801V40.7705H37.5838V35.5369H33.236V40.7705H29.2572V27.8321Z" fill="#7F9FF4"/>
<path d="M44.2629 34.3102C44.2629 32.1979 44.8485 30.5534 46.0196 29.3766C47.1907 28.1999 48.8214 27.6115 50.9119 27.6115C53.055 27.6115 54.7062 28.191 55.8656 29.3501C57.025 30.5034 57.6047 32.1214 57.6047 34.2042C57.6047 35.7164 57.35 36.9579 56.8406 37.9287C56.337 38.8936 55.6051 39.6467 54.6447 40.188C53.6903 40.7235 52.4987 40.9912 51.07 40.9912C49.6178 40.9912 48.4145 40.7588 47.46 40.2939C46.5114 39.8291 45.7414 39.0937 45.15 38.0875C44.5586 37.0814 44.2629 35.8223 44.2629 34.3102ZM48.2417 34.3278C48.2417 35.634 48.4818 36.5725 48.962 37.1432C49.448 37.7139 50.1067 37.9993 50.9382 37.9993C51.7931 37.9993 52.4548 37.7198 52.9232 37.1608C53.3917 36.6019 53.6259 35.5987 53.6259 34.1513C53.6259 32.9334 53.38 32.0449 52.8881 31.4859C52.4021 30.9211 51.7404 30.6387 50.9031 30.6387C50.1009 30.6387 49.4568 30.924 48.9707 31.4948C48.4847 32.0655 48.2417 33.0098 48.2417 34.3278Z" fill="#7F9FF4"/>
<path d="M59.7868 34.3102C59.7868 32.1979 60.3724 30.5534 61.5435 29.3766C62.7146 28.1999 64.3454 27.6115 66.4358 27.6115C68.5789 27.6115 70.2301 28.191 71.3895 29.3501C72.5489 30.5034 73.1286 32.1214 73.1286 34.2042C73.1286 35.7164 72.8739 36.9579 72.3645 37.9287C71.8609 38.8936 71.129 39.6467 70.1687 40.188C69.2142 40.7235 68.0226 40.9912 66.5939 40.9912C65.1417 40.9912 63.9384 40.7588 62.9839 40.2939C62.0354 39.8291 61.2654 39.0937 60.6739 38.0875C60.0825 37.0814 59.7868 35.8223 59.7868 34.3102ZM63.7657 34.3278C63.7657 35.634 64.0057 36.5725 64.4859 37.1432C64.9719 37.7139 65.6306 37.9993 66.4621 37.9993C67.317 37.9993 67.9787 37.7198 68.4471 37.1608C68.9156 36.6019 69.1498 35.5987 69.1498 34.1513C69.1498 32.9334 68.9039 32.0449 68.412 31.4859C67.926 30.9211 67.2643 30.6387 66.427 30.6387C65.6248 30.6387 64.9807 30.924 64.4947 31.4948C64.0087 32.0655 63.7657 33.0098 63.7657 34.3278Z" fill="#7F9FF4"/>
<path d="M75.8114 27.8321H79.7902V37.5845H86V40.7705H75.8114V27.8321Z" fill="#7F9FF4"/>
</svg>
