<svg width="26" height="26" viewBox="0 0 26 26" fill="none" xmlns="http://www.w3.org/2000/svg">
<path d="M24.0088 6.12735C23.1818 6.49318 22.3047 6.73344 21.4067 6.84018C22.3532 6.27406 23.0617 5.38311 23.4 4.33335C22.5117 4.86201 21.5377 5.23251 20.5227 5.43293C19.8408 4.70339 18.9371 4.21956 17.9519 4.05665C16.9667 3.89374 15.9553 4.06088 15.0749 4.53209C14.1945 5.00329 13.4944 5.75217 13.0835 6.66229C12.6727 7.57241 12.574 8.59277 12.8028 9.56476C11.0014 9.47447 9.23902 9.00633 7.63022 8.19073C6.02142 7.37513 4.60213 6.23031 3.4645 4.8306C3.06181 5.52225 2.8502 6.30851 2.85133 7.10884C2.85133 8.67968 3.65083 10.0674 4.86633 10.8799C4.14701 10.8573 3.44351 10.663 2.8145 10.3133V10.3697C2.81471 11.4159 3.17673 12.4298 3.83916 13.2395C4.5016 14.0492 5.42368 14.6049 6.44908 14.8124C5.78133 14.9934 5.08116 15.0201 4.40158 14.8904C4.69069 15.7909 5.25417 16.5785 6.01314 17.1428C6.7721 17.7071 7.68855 18.02 8.63416 18.0375C7.69435 18.7756 6.61827 19.3212 5.46745 19.6432C4.31663 19.9652 3.11363 20.0571 1.92725 19.9138C3.99825 21.2457 6.4091 21.9528 8.87141 21.9505C17.2055 21.9505 21.7631 15.0464 21.7631 9.05885C21.7631 8.86385 21.7577 8.66668 21.749 8.47385C22.6361 7.83269 23.4017 7.03845 24.0099 6.12843L24.0088 6.12735Z" fill="#7F9FF4"/>
</svg>
